<?xml version="1.0" encoding="utf-8"?>
<!-- Generator: Adobe Illustrator 24.1.3, SVG Export Plug-In . SVG Version: 6.00 Build 0)  -->
<svg version="1.1" id="Capa_1" xmlns="http://www.w3.org/2000/svg" xmlns:xlink="http://www.w3.org/1999/xlink" x="0px" y="0px"
	 viewBox="0 0 26 26.6" style="enable-background:new 0 0 26 26.6;" xml:space="preserve">
<style type="text/css">
	.st0{filter:url(#filter-1);}
	.st1{fill-rule:evenodd;clip-rule:evenodd;fill:url(#Oval-Copy-3_2_);}
	.st2{fill:#F8B013;}
</style>
<filter  filterUnits="objectBoundingBox" height="128.3%" id="filter-1" width="128.3%" x="-9.1%" y="-9.1%">
	<feOffset  dx="2" dy="2" in="SourceAlpha" result="shadowOffsetOuter1"></feOffset>
	<feGaussianBlur  in="shadowOffsetOuter1" result="shadowBlurOuter1" stdDeviation="2"></feGaussianBlur>
	
		<feColorMatrix  in="shadowBlurOuter1" result="shadowMatrixOuter1" type="matrix" values="0 0 0 0 0   0 0 0 0 0   0 0 0 0 0  0 0 0 0.1 0">
		</feColorMatrix>
	<feMerge>
		<feMergeNode  in="shadowMatrixOuter1"></feMergeNode>
		<feMergeNode  in="SourceGraphic"></feMergeNode>
	</feMerge>
</filter>
<g id="Page-1">
	<g id="Catalog-pg1" transform="translate(-609.000000, -731.000000)">
		<g id="products" transform="translate(132.000000, 622.000000)">
			<g id="line-1">
				<g id="product-card-hover" transform="translate(300.000000, 0.000000)" class="st0">
					<g id="money_1_" transform="translate(71.000000, 100.000000)">
						<g transform="translate(108.000000, 11.000000)">
							<g>
								
									<radialGradient id="Oval-Copy-3_2_" cx="-645.3697" cy="381.9727" r="0.6863" gradientTransform="matrix(26 0 0 -26 16791.1406 9942.917)" gradientUnits="userSpaceOnUse">
									<stop  offset="0" style="stop-color:#FFCF00"/>
									<stop  offset="1" style="stop-color:#F7AE15"/>
								</radialGradient>
								<circle id="Oval-Copy-3_1_" class="st1" cx="11.5" cy="11.6" r="13"/>
								<path id="Shape_3_" class="st2" d="M11.5,1.7c-5.5,0-9.9,4.5-9.9,9.9c0,5.5,4.5,9.9,9.9,9.9c5.5,0,9.9-4.5,9.9-9.9
									C21.4,6.2,17,1.7,11.5,1.7z M11.5,20.4c-4.8,0-8.7-3.9-8.7-8.7s3.9-8.7,8.7-8.7s8.7,3.9,8.7,8.7S16.4,20.4,11.5,20.4z"/>
								<path id="Shape_2_" class="st2" d="M11.5,3.9c-4.2,0-7.7,3.5-7.7,7.7c0,4.2,3.5,7.7,7.7,7.7c4.2,0,7.7-3.5,7.7-7.7
									C19.2,7.4,15.8,3.9,11.5,3.9z M11.5,18.2c-3.6,0-6.5-2.9-6.5-6.5s2.9-6.5,6.5-6.5s6.5,2.9,6.5,6.5S15.1,18.2,11.5,18.2z"/>
							</g>
						</g>
					</g>
				</g>
			</g>
		</g>
	</g>
</g>
</svg>
