<?xml version="1.0" encoding="utf-8"?>
<!-- Generator: Adobe Illustrator 24.1.3, SVG Export Plug-In . SVG Version: 6.00 Build 0)  -->
<svg version="1.1" id="Capa_1" xmlns="http://www.w3.org/2000/svg" xmlns:xlink="http://www.w3.org/1999/xlink" x="0px" y="0px"
	 viewBox="0 0 974 571" style="enable-background:new 0 0 974 571;" xml:space="preserve">
<style type="text/css">
	.st0{opacity:0.28;}
	.st1{fill:#0AD4FA;}
	.st2{fill:#FFB239;}
	.st3{fill:#E68C94;}
	.st4{fill:#0A1425;}
	.st5{fill:#D17F86;}
	.st6{fill:#1AADC1;}
	.st7{fill:#E3932E;}
	.st8{opacity:0.75;fill:#E3932E;}
	.st9{fill:#FFC700;}
	.st10{fill:#1E3150;}
	.st11{fill:#FFFFFF;}
	.st12{fill:#FFC5CC;}
</style>
<g>
	<g class="st0">
		<path class="st1" d="M444.2,558l-0.3-229.3c1,0,2-0.1,3-0.2l-3-21.6l0.1-0.4l0.2,0.8l35.8,248.1C468.1,557.1,456.1,558,444.2,558z
			 M408.6,555.5c-11.9-1.7-23.8-4.2-35.3-7.6l70.2-241.1l-0.1,0.7l-5.9,20.2c1,0.3,2,0.5,3,0.7L408.6,555.5z M515.1,547.7
			l-64.9-219.9c1-0.3,2-0.7,3-1.1l95.7,208.4C538,540.1,526.6,544.3,515.1,547.7z M339.5,535.4c-10.9-5-21.5-10.7-31.6-17.2
			l123.8-193c0.9,0.5,1.8,1,2.7,1.4l8.9-19.5l0.3-0.5l0,0.2L339.5,535.4z M580.4,517.8l-136-210.5l-0.4-0.9l0.4,0.5l11.7,18.1
			c0.9-0.6,1.7-1.2,2.5-1.8l150.4,173C600.1,504,590.4,511.3,580.4,517.8z M279.1,496.7c-9-7.8-17.5-16.3-25.4-25.3l189.1-164.7
			l0.6-0.4l0,0.1l0.1-0.1l-0.2,0.1l-0.3,0.4L279.1,496.7z M443.3,306.6L426.7,321c0.7,0.8,1.4,1.5,2.2,2.2L443.3,306.6z
			 M634.4,470.9L461,320.9c0.7-0.8,1.3-1.6,1.8-2.5l-18.2-11.7l-0.4-0.3l0.8,0.4l210.8,135.4C649.4,452.2,642.2,461.8,634.4,470.9z
			 M232.2,442.8c-6.5-10-12.3-20.6-17.3-31.5l228.2-104.9l-240.9,71.2c-3.4-11.5-6-23.3-7.7-35.2l226.9-32.8c0.2,1,0.4,2,0.7,2.9
			l20.3-6l0.7-0.1h-0.3l0.6-0.2l-0.5-0.1l-1.8,0.3H191.9v-0.3c0-11.9,0.8-23.9,2.5-35.6l247.8,35.2l1.1,0.3l-0.4,0.1l0.6,0l0,0l0,0
			l0,0l0,0l0,0l0,0l0,0l0,0l0,0l0,0h0l0,0l0,0l0,0l0,0l0,0l0,0l0,0l0,0l0,0l0.1,0v0.1l0,0l0,0v0l0,0l0,0l0,0v0l0,0l0,0l0,0l0,0l0,0
			l0,0l0,0l0,0l0,0v0l0,0l0,0l0,0l0,0l0,0h0l-0.1,0.2l0-0.1l-0.2,0.4l0.2-0.4l0-0.1l0,0l0,0l0.1,0l0,0l0,0l0,0l0,0l0,0l0,0l0,0
			l-0.1,0.1l0.1-0.1l0,0l0,0l0,0l0,0l0,0l0,0l0,0l-0.1,0.1l0.1-0.1l0,0.1l0,0l0,0.1h-0.1l0.1-0.1l-0.2,0.1h-0.2l-0.5,0.3l-19.4,8.9
			c0.4,0.9,0.9,1.8,1.5,2.7L232.2,442.8z M443.3,306.3L443.3,306.3l0.2,0l0.1-0.1L443.3,306.3z M443.7,306.1L443.7,306.1
			L443.7,306.1L443.7,306.1L443.7,306.1L443.7,306.1L443.7,306.1L443.7,306.1L443.7,306.1L443.7,306.1z M443.7,306.1L443.7,306.1
			L443.7,306.1L443.7,306.1z M443.7,306.1L443.7,306.1L443.7,306.1L443.7,306.1z M421.4,303c-0.1,1-0.2,2.1-0.2,3l21.7,0L421.4,303z
			 M673.1,410.5l-208.7-95.1c0.4-1,0.8-1.9,1.1-2.9l220.1,64.2C682.3,388.2,678.1,399.6,673.1,410.5z M693.2,341.5l-248.3-35.1
			l-0.7-0.2l0.1,0l-0.2-0.1l0.1,0l-0.1-0.1l0,0l0,0l0,0l0,0l0,0l0,0l0,0l0,0l0,0v0l0,0l0,0l0,0l0,0l0,0l0,0l0-0.1v0l0,0l0,0l0,0l0,0
			l0,0l0,0l0,0l0,0l0,0l0-0.1l0,0l0,0l0,0l0,0l0,0l0,0l0,0l0,0v0l0,0l0,0l0,0l0-0.1l0,0l0-0.1l0,0l0.2-0.3l0.1-0.5l6-20.5
			c-1-0.3-2-0.5-3-0.7l32.2-227c11.9,1.7,23.7,4.2,35.2,7.6l-70.4,241L548.4,76.9c10.9,5,21.5,10.8,31.6,17.3L456,287
			c-0.9-0.5-1.8-1-2.7-1.5l-8.8,19.4l-0.4,0.7l0-0.1l-0.1,0.2l0,0.1l0,0l0,0l0,0l0,0l0,0l0,0l0,0l0,0l0,0l0,0l0,0.1l0,0l0,0l0,0l0,0
			l0,0l0,0l0,0l0,0l0,0l0.1-0.1l0,0l0,0l0,0l0.1,0l0.1-0.1l0,0l0,0l0.6-0.4l19.4-8.9c-0.4-0.9-0.9-1.8-1.4-2.7l192.7-124.3
			c6.5,10.1,12.3,20.7,17.3,31.5L444.7,305.8l240.9-70.8c3.4,11.5,6,23.3,7.7,35.2l-227,32.6c-0.2-1-0.4-2-0.7-3l-20.5,6.1l-0.5,0.1
			l-0.3,0.1l0.1,0l-0.3,0.1l0,0l-0.1,0h0l0,0l0,0l0,0h1l250.8-0.1v0.1C695.7,317.9,694.9,329.8,693.2,341.5z M446.8,306.3l19.4,2.8
			c0.1-0.9,0.2-1.9,0.2-2.8H446.8z M443.9,306.1L443.9,306.1L443.9,306.1L443.9,306.1z M443.9,306.1L443.9,306.1L443.9,306.1z
			 M443.9,306.1L443.9,306.1L443.9,306.1z M443.8,305.9L443.8,305.9L443.8,305.9L443.8,305.9z M443.8,305.9L443.8,305.9L443.8,305.9
			z M443.9,305.9L443.9,305.9L443.9,305.9L443.9,305.9z M443.8,307.1L443.8,307.1L443.8,307.1L443.8,307.1z M444.1,306.9l-0.1-0.2
			L444.1,306.9z M444,306.7l-0.1-0.3l0,0h0l-0.1-0.1l0,0l0,0l0,0l0,0l0,0l0.1,0.1h0l0,0L444,306.7z M443.9,306.5L443.9,306.5
			L443.9,306.5L443.9,306.5z M443.6,306.4L443.6,306.4L443.6,306.4z M443.8,306.4L443.8,306.4L443.8,306.4z M444.1,306.3l-0.1-0.1
			l0,0l-0.1,0l0,0l0,0l0,0l0,0l0,0l0,0l0,0l0,0l0,0l0,0l0,0l0,0l0,0l0.1,0l0.2,0.1l0,0l0.1,0.1L444.1,306.3l-0.1-0.1L444.1,306.3
			L444.1,306.3L444.1,306.3z M444,306.3L444,306.3L444,306.3L444,306.3z M443.9,306.3L443.9,306.3L443.9,306.3z M443.6,306.3
			L443.6,306.3L443.6,306.3L443.6,306.3z M443.6,306.3L443.6,306.3L443.6,306.3L443.6,306.3z M443.8,306.2L443.8,306.2L443.8,306.2z
			 M443.9,306.2L443.9,306.2L443.9,306.2z M443.9,306.2L443.9,306.2L443.9,306.2L443.9,306.2z M444,306.2L444,306.2L444,306.2
			L444,306.2L444,306.2L444,306.2L444,306.2L444,306.2L444,306.2L444,306.2z M443.7,306L443.7,306L443.7,306z M443.6,306l-0.1-0.1
			l0.1,0l-0.1-0.2L443.6,306l-0.1-0.2l0.1,0.1l0,0L443.6,306L443.6,306l0.1,0L443.6,306L443.6,306L443.6,306L443.6,306L443.6,306
			L443.6,306L443.6,306L443.6,306z M443.6,306l-0.3-0.1l0.2,0L443.6,306z M443.8,306L443.8,306L443.8,306L443.8,306z M444,306
			L444,306L444,306L444,306z M443.8,306L443.8,306L443.8,306L443.8,306z M443.8,305.9L443.8,305.9L443.8,305.9L443.8,305.9z
			 M443.8,305.9L443.8,305.9L443.8,305.9L443.8,305.9z M444,305.9L444,305.9L444,305.9z M444,305.9L444,305.9l0.1-0.1L444,305.9z
			 M444,305.9L444,305.9L444,305.9z M443.8,305.9L443.8,305.9L443.8,305.9L443.8,305.9z M443.7,305.9L443.7,305.9l-0.1-0.3l0,0
			L443.7,305.9L443.7,305.9z M444,305.8l0.1-0.1L444,305.8z M443.4,305.8l-0.6-0.3L231.9,169.8c6.5-10,13.7-19.7,21.5-28.7
			l173.2,150.2c-0.7,0.8-1.3,1.6-1.8,2.5l18,11.6L443.4,305.8z M444,305.8l0.2-0.1l0.3-0.4l164.2-189.6c9,7.8,17.5,16.3,25.3,25.3
			L444.7,305.4L444,305.8l0.1-0.1L444,305.8z M458.7,289l-14.4,16.6l16.6-14.4C460.2,290.4,459.4,289.6,458.7,289z M443,305.8
			L443,305.8L443,305.8z M443.6,305.7l-0.6-0.6l-11.6-18c-0.8,0.5-1.7,1.1-2.4,1.8L278.8,115.8c9-7.8,18.7-15.1,28.7-21.5L443.3,305
			L443.6,305.7z M443.7,305.7l-0.2-0.6L408,56.7c11.8-1.7,23.8-2.5,35.7-2.5l0.1,231.4l0-2.2c-1,0-2.1,0.1-3.1,0.2l3.1,21.4
			L443.7,305.7z M422.1,299.7l-220.1-64.5c3.4-11.5,7.6-22.9,12.6-33.8l208.5,95.4C422.8,297.7,422.4,298.7,422.1,299.7z
			 M434.5,285.5L339,77c10.9-5,22.3-9.2,33.8-12.6l64.6,220C436.4,284.7,435.4,285.1,434.5,285.5z"/>
	</g>
	<g>
		<polygon class="st2" points="685.7,140.3 678.5,140.3 678.5,133.1 672.2,133.1 672.2,140.3 665,140.3 665,146.6 672.2,146.6 
			672.2,153.8 678.5,153.8 678.5,146.6 685.7,146.6 		"/>
		<polygon class="st2" points="259.5,243.9 252.3,243.9 252.3,236.7 245.9,236.7 245.9,243.9 238.7,243.9 238.7,250.3 245.9,250.3 
			245.9,257.4 252.3,257.4 252.3,250.3 259.5,250.3 		"/>
		<polygon class="st2" points="379.3,20.9 372.1,20.9 372.1,13.8 365.8,13.8 365.8,20.9 358.6,20.9 358.6,27.3 365.8,27.3 
			365.8,34.5 372.1,34.5 372.1,27.3 379.3,27.3 		"/>
	</g>
	<g>
		<g>
			<path class="st3" d="M395,354.7c-1.4-13.6-6.9-19.4-29-20.2c-14.4-0.5-30.3,0.3-43.3,0.3c-0.1,0-2.7,0.1-6.9,0.2
				c10.6-8.8,21.3-18.7,23.1-23.2c2.5-6.1-4.3-12-10.1-8.8l-59.3,32.5c-8.1,0-15.6-0.1-21.5-0.3c-6.2-0.2-8.4,1-14.6,1.1l-1.1,59
				c21.3-6.4,26.9-5.6,40.5-1c18.6,6.2,37.5,13.3,57.5,13c14.6-0.2,29.3-4.6,41.1-13.2C382.8,385.8,396.6,369.6,395,354.7z"/>
			<rect x="97.7" y="329.1" class="st4" width="152.6" height="71.8"/>
		</g>
		<g>
			<path class="st5" d="M654.4,354.4l-25.3-0.1c-5.3,0.1-10.6-1.1-15.3-3.7l-54.7-29.5c-5.8-3.2-12.6,2.6-10.1,8.8
				c2.2,5.5,11.7,13.2,25.2,24c0,0-30.3,5.9-54,1.2c-19.5-3.8-25.2,4.5-26.7,18.2c-1.6,14.9,11.6,30.6,22.9,38.8
				c11.8,8.6,26.5,13,41.1,13.2c19.9,0.3,38.8-6.7,57.5-13c13.6-4.5,19.2-5.3,40.5,1L654.4,354.4z"/>
			
				<rect x="637.6" y="347.2" transform="matrix(-1 -1.224647e-16 1.224647e-16 -1 1427.7196 766.1694)" class="st6" width="152.6" height="71.8"/>
		</g>
		<g>
			<g>
				<rect x="313.6" y="255.5" class="st7" width="264.1" height="232"/>
				<rect x="313.6" y="259.5" class="st8" width="264.1" height="33.3"/>
				<rect x="308.7" y="224.9" class="st9" width="271" height="48.2"/>
				<rect x="414.8" y="223.4" class="st10" width="59.3" height="87.7"/>
			</g>
			<rect x="509.5" y="289.9" class="st11" width="43.6" height="25.5"/>
			<rect x="509.5" y="323.9" class="st11" width="43.6" height="38.3"/>
		</g>
		<g>
			<path class="st8" d="M313.9,374.7c9.9-8.3,19.3-17.2,21-21.4c2.5-6.1-4.3-12-10.1-8.8l-10.8,5.9V374.7z"/>
			<path class="st8" d="M391,396.2c-1.4-13.6-6.9-19.4-29-20.2c-12.9-0.5-39.7,0.2-48.1,0.4V448c4.1,0.5,8.2,0.8,12.4,0.8
				c14.6-0.2,29.3-4.6,41.1-13.2C378.8,427.3,392.6,411,391,396.2z"/>
			<path class="st12" d="M391,385c-1.4-13.6-6.9-19.4-29-20.2c-14.4-0.5-46,0.4-50.2,0.5c10.6-8.8,21.3-18.7,23.1-23.2
				c2.5-6.1-4.3-12-10.1-8.8l-59.3,32.5c-8.1,0-15.6-0.1-21.5-0.3c-6.2-0.2-8.4,1-14.6,1.1l-1.1,59c21.3-6.4,26.9-5.6,40.5-1
				c18.6,6.2,37.5,13.3,57.5,13c14.6-0.2,29.3-4.6,41.1-13.2C378.8,416.1,392.6,399.9,391,385z"/>
			<rect x="93.7" y="359.4" class="st10" width="152.6" height="71.8"/>
		</g>
		<g>
			<path class="st8" d="M577,383.3l-15.8-8.5c-5.8-3.2-12.6,2.6-10.1,8.8c2.2,5.5,11.7,13.2,25.2,24c0,0-30.3,5.9-54,1.2
				c-19.5-3.8-25.2,4.5-26.7,18.2c-1.6,14.9,11.6,30.6,22.9,38.8c11.8,8.6,26.5,13,41.1,13.2c5.9,0.1,11.6-0.5,17.3-1.5V383.3z"/>
			<path class="st12" d="M656.6,397l-25.3-0.1c-5.3,0.1-10.6-1.1-15.3-3.7l-54.7-29.5c-5.8-3.2-12.6,2.6-10.1,8.8
				c2.2,5.5,11.7,13.2,25.2,24c0,0-30.3,5.9-54,1.2c-19.5-3.8-25.2,4.5-26.7,18.2c-1.6,14.9,11.6,30.6,22.9,38.8
				c11.8,8.6,26.5,13,41.1,13.2c19.9,0.3,38.8-6.7,57.5-13c13.6-4.5,19.2-5.3,40.5,1L656.6,397z"/>
			
				<rect x="639.7" y="389.7" transform="matrix(-1 -1.224647e-16 1.224647e-16 -1 1431.9713 851.2057)" class="st1" width="152.6" height="71.8"/>
		</g>
	</g>
</g>
</svg>
